<svg xmlns="http://www.w3.org/2000/svg" width="15.016" height="15.05" viewBox="0 0 15.016 15.05"><defs><style>.a{fill:#42957e;}</style></defs><path class="a" d="M17.4,9.8,13.9,6.2,10.4,2.6a.483.483,0,0,0-.7,0L7.2,5.2V4a.472.472,0,0,0-.5-.5H5.4a.536.536,0,0,0-.5.5V7.5L2.6,9.8a.44.44,0,0,0-.1.5c.1.2.2.3.4.3H4.6V17a.472.472,0,0,0,.5.5H8.4a.472.472,0,0,0,.5-.5V14.7a1.1,1.1,0,0,1,2.2,0V17a.472.472,0,0,0,.5.5h3.3a.472.472,0,0,0,.5-.5V10.6H17c.2,0,.4-.1.4-.3A.446.446,0,0,0,17.4,9.8ZM5.8,4.5h.4V6.1l-.4.5Zm9,5.2a.472.472,0,0,0-.5.5v6.4H12V14.8a2.112,2.112,0,0,0-2.1-2.1,2.051,2.051,0,0,0-2.1,2.1v1.8H5.6V10.2a.472.472,0,0,0-.5-.5h-1L10,3.6l5.9,6.1Z" transform="translate(-2.459 -2.45)"/></svg>