<svg xmlns="http://www.w3.org/2000/svg" width="40" height="40" viewBox="0 0 40 40"><defs><style>.a{fill:#0dacd2;}.b{fill:none;}</style></defs><g transform="translate(0.727 0.5)"><path class="a" d="M37.329-160.245l2.554-16.172a1.271,1.271,0,0,0-.29-1.029,1.275,1.275,0,0,0-.971-.447H12.332l-.533-4A1.281,1.281,0,0,0,10.533-183H6.277A1.278,1.278,0,0,0,5-181.723a1.278,1.278,0,0,0,1.277,1.277H9.415l3.1,23.272a3.845,3.845,0,0,0-2.411,3.54,3.835,3.835,0,0,0,3.83,3.83,3.835,3.835,0,0,0,3.83-3.83,3.675,3.675,0,0,0-.229-1.277H30.764a3.685,3.685,0,0,0-.229,1.277,3.834,3.834,0,0,0,3.83,3.83,3.835,3.835,0,0,0,3.831-3.83,3.835,3.835,0,0,0-3.831-3.83H15.055l-.227-1.7h21.24A1.27,1.27,0,0,0,37.329-160.245Zm-4.24,6.61a1.278,1.278,0,0,1,1.277-1.277,1.279,1.279,0,0,1,1.277,1.277,1.279,1.279,0,0,1-1.277,1.277A1.278,1.278,0,0,1,33.089-153.634Zm-17.875,0a1.278,1.278,0,0,1-1.277,1.277,1.278,1.278,0,0,1-1.277-1.277,1.278,1.278,0,0,1,1.277-1.277A1.278,1.278,0,0,1,15.214-153.634Zm21.914-21.705-2.151,13.619H14.488l-1.816-13.619Z" transform="translate(-3.208 186.366)"/><rect class="b" width="40" height="40" transform="translate(-0.727 -0.5)"/></g></svg>