<svg xmlns="http://www.w3.org/2000/svg" width="14" height="9.7" viewBox="0 0 14 9.7"><defs><style>.a{fill:#42957e;}</style></defs><path class="a" d="M17,5.6h0V5.5h0a.1.1,0,0,0-.1-.1h0a.1.1,0,0,0-.1-.1H3.3a.1.1,0,0,0-.1.1h0a.1.1,0,0,0-.1.1h0a.1.1,0,0,1-.1.1H3v.1H3v8.9a.43.43,0,0,0,.4.4H16.5a.43.43,0,0,0,.4-.4l.1-9Zm-5.7,5.3.4-.3L15.5,14H4.6l3.8-3.4.4.3a2.106,2.106,0,0,0,1.3.5A2.078,2.078,0,0,0,11.3,10.9ZM3.9,13.4V6.5L7.7,10ZM12.3,10l3.8-3.4v6.9Zm3.1-4-4.7,4.2a.967.967,0,0,1-1.4,0L4.6,6Z" transform="translate(-3 -5.3)"/></svg>