<svg xmlns="http://www.w3.org/2000/svg" width="25" height="25" viewBox="0 0 25 25"><defs><style>.a{fill:#fff;}.b{fill:none;}</style></defs><g transform="translate(-0.368)"><path class="a" d="M26.791,42.464H10.14A1.194,1.194,0,0,1,9,41.225V38.934c0-1.587,1.187-2.836,3.629-3.821,2.22-.887,2.313-1.392,2.313-2.45a.563.563,0,0,0-.007-.114c-.007-.02-.05-.089-.084-.145l-.025-.041a5.036,5.036,0,0,1-.714-1.859,2.593,2.593,0,0,1-1-2.261v-.048A2.88,2.88,0,0,1,13.39,26.9c-.023-.168-.051-.364-.093-.588-.488-2.968.352-4.94,2.492-5.876a4.712,4.712,0,0,1,4.678.121,3.183,3.183,0,0,1,2.151,1.176c1.126,1.392.924,4.047.791,5.092a2.547,2.547,0,0,1,.308,1.292v.047a2.678,2.678,0,0,1-1,2.307,5.338,5.338,0,0,1-.735,1.893,1.562,1.562,0,0,0-.085.147h0a.59.59,0,0,0-.007.113c0,1.058.093,1.563,2.311,2.45,2.443.985,3.631,2.235,3.631,3.822v2.217a1.249,1.249,0,0,1-.207.917A1.015,1.015,0,0,1,26.791,42.464Zm-16.41-1.5H26.446V38.9c0-.871-.918-1.683-2.728-2.413C21.255,35.5,20.5,34.6,20.5,32.625a1.811,1.811,0,0,1,.323-1.092,4.111,4.111,0,0,0,.589-1.646l.021-.115v-.124l.2-.22a.837.837,0,0,1,.32-.216c.153-.086.323-.257.376-1.116a.8.8,0,0,0-.143-.536l-.254-.276L22,26.9c.169-1.055.3-3.288-.426-4.182a1.929,1.929,0,0,0-1.438-.686l-.24-.022-.176-.18c-.325-.332-1.635-.795-3.409,0-1.94.849-1.9,2.693-1.655,4.205.048.261.082.5.11.7l.08.542-.192.261a1.124,1.124,0,0,0-.16.635c.052.824.193.971.388,1.084a.8.8,0,0,1,.191.106.81.81,0,0,1,.349.613,3.8,3.8,0,0,0,.553,1.554L16,31.57a1.808,1.808,0,0,1,.323,1.092c0,1.973-.751,2.874-3.216,3.859-1.808.729-2.726,1.541-2.726,2.412Z" transform="translate(-6.298 -18.858)"/><rect class="b" width="25" height="25" transform="translate(0.368)"/></g></svg>