<svg xmlns="http://www.w3.org/2000/svg" width="30" height="30" viewBox="0 0 30 30"><defs><style>.a{fill:#fff;}.b{fill:none;}</style></defs><g transform="translate(-1508 -120)"><path class="a" d="M27.324,19.735a6.953,6.953,0,1,0-10.528,0c-3.758,2.282-6.266,7.16-6.266,12.24a.664.664,0,0,0,.663.663H32.927a.664.664,0,0,0,.663-.663C33.59,26.9,31.083,22.022,27.324,19.735ZM22.06,20.821a3.963,3.963,0,0,1-.513-.022,5.928,5.928,0,0,1-.611-.093,5.646,5.646,0,0,1-1.906-.778,5.867,5.867,0,0,1-.717-.526,5.647,5.647,0,0,1-1.875-4.2h0a5.623,5.623,0,1,1,5.623,5.623Zm-4.027.062c.093.066.183.127.281.19l.236.145c.1.059.2.112.311.164.05.024.087.044.122.063s.075.041.119.061l.123.055c.057.025.116.051.18.081l.253.1c.082.03.163.056.245.082l.1.033c.1.032.154.05.238.07l.067.016.28.067.241.051c.1.019.206.032.309.045l.12.014h.194c.229.02.427.03.6.03a4.041,4.041,0,0,0,.61-.031l.287-.035c.106-.013.21-.027.323-.047l.33-.071c.087-.02.176-.039.262-.064l.15-.045.093-.028c.087-.025.226-.071.337-.115s.166-.065.246-.1.219-.091.313-.141c.047-.025.089-.046.13-.066l.1-.052c.081-.042.2-.1.308-.167l.227-.143c.1-.061.193-.123.287-.191l.24-.179c3.353,1.852,5.707,6.08,5.918,10.623l-20.356.023c.211-4.551,2.565-8.779,5.918-10.622Z" transform="translate(1501.41 115.313)"/><rect class="b" width="30" height="30" transform="translate(1508 120)"/></g></svg>