<svg xmlns="http://www.w3.org/2000/svg" width="40" height="40" viewBox="0 0 40 40"><defs><style>.a{fill:#389178;}.b{fill:none;}</style></defs><g transform="translate(-1397 -132)"><g transform="translate(1583.491 -7.066)"><path class="a" d="M-154.881,151.812a.853.853,0,0,0-.852-.812h-2.224a.854.854,0,0,0-.853.853.854.854,0,0,0,.853.853h1.411l1.108,23.039h-22.1l1.108-23.039h1.41a.853.853,0,0,0,.853-.853.853.853,0,0,0-.853-.853h-2.223a.853.853,0,0,0-.852.812l-1.19,24.746a.857.857,0,0,0,.235.63.855.855,0,0,0,.618.265h23.893a.855.855,0,0,0,.619-.265.852.852,0,0,0,.234-.63Z" transform="translate(0 -1.32)"/><path class="a" d="M-173.437,154.8a.854.854,0,0,0-.853.853.854.854,0,0,0,.853.853h3.413a.853.853,0,0,0,.853-.853.853.853,0,0,0-.853-.853h-.853v-3.413h10.24V154.8h-.853a.854.854,0,0,0-.853.853.854.854,0,0,0,.853.853h3.413a.853.853,0,0,0,.853-.853.853.853,0,0,0-.853-.853h-.853v-6.183A6.7,6.7,0,0,0-165.693,142h-.127a6.7,6.7,0,0,0-6.763,6.617V154.8Zm7.617-11.093h.127a4.991,4.991,0,0,1,5.056,4.91v1.063h-10.24v-1.063A4.991,4.991,0,0,1-165.82,143.707Z" transform="translate(-0.733)"/></g><rect class="b" width="40" height="40" transform="translate(1397 132)"/></g></svg>