<svg xmlns="http://www.w3.org/2000/svg" width="24" height="24" viewBox="0 0 24 24">
  <g id="Group_7" data-name="Group 7" transform="translate(0.4 0.03)">
    <path id="Path_10" data-name="Path 10" d="M25.077-168.869l1.586-10.043a.789.789,0,0,0-.18-.639.792.792,0,0,0-.6-.278H9.553l-.331-2.483A.8.8,0,0,0,8.436-183H5.793a.794.794,0,0,0-.793.793.794.794,0,0,0,.793.793H7.742l1.927,14.452a2.388,2.388,0,0,0-1.5,2.2,2.381,2.381,0,0,0,2.379,2.379,2.381,2.381,0,0,0,2.379-2.379,2.283,2.283,0,0,0-.142-.793H21a2.289,2.289,0,0,0-.142.793,2.381,2.381,0,0,0,2.379,2.379,2.381,2.381,0,0,0,2.379-2.379,2.382,2.382,0,0,0-2.379-2.379H11.245L11.1-168.2h13.19A.788.788,0,0,0,25.077-168.869Zm-2.633,4.105a.794.794,0,0,1,.793-.793.794.794,0,0,1,.793.793.794.794,0,0,1-.793.793A.794.794,0,0,1,22.444-164.763Zm-11.1,0a.794.794,0,0,1-.793.793.794.794,0,0,1-.793-.793.794.794,0,0,1,.793-.793A.794.794,0,0,1,11.343-164.763Zm13.609-13.479-1.336,8.458H10.892l-1.128-8.458Z" transform="translate(-3.93 184.995)" fill="#1c1c1d"/>
    <rect id="Rectangle_22" data-name="Rectangle 22" width="24" height="24" transform="translate(-0.4 -0.03)" fill="none"/>
  </g>
</svg>
